<?xml version="1.0" standalone="no"?><!DOCTYPE svg PUBLIC "-//W3C//DTD SVG 1.1//EN" "http://www.w3.org/Graphics/SVG/1.1/DTD/svg11.dtd"><svg t="1632475108553" class="icon" viewBox="0 0 1024 1024" version="1.1" xmlns="http://www.w3.org/2000/svg" p-id="1191" xmlns:xlink="http://www.w3.org/1999/xlink" width="200" height="200"><defs><style type="text/css"></style></defs><path d="M512 810.666667c40.362667 0 77.226667-4.394667 110.848-11.989334l-74.965333-74.965333c-11.648 0.896-23.466667 1.621333-35.882667 1.621333-228.309333 0-316.757333-164.096-338.176-213.333333a368.725333 368.725333 0 0 1 64.341333-98.005333L178.517333 354.346667c-65.621333 71.125333-90.496 142.762667-90.965333 144.170666a42.410667 42.410667 0 0 0 0 27.008C88.448 528.341333 186.325333 810.666667 512 810.666667z m0-597.333334c-78.378667 0-142.762667 16.896-196.437333 41.856L158.165333 97.834667 97.834667 158.165333l768 768 60.330666-60.330666-141.610666-141.610667c111.530667-83.242667 151.338667-196.906667 151.936-198.698667a42.410667 42.410667 0 0 0 0-27.008C935.552 495.658667 837.674667 213.333333 512 213.333333z m212.138667 450.474667l-97.28-97.28c8.106667-16.64 13.141333-34.944 13.141333-54.528 0-70.016-57.984-128-128-128-19.584 0-37.888 5.034667-54.485333 13.184L380.373333 320.042667A395.093333 395.093333 0 0 1 512 298.666667c228.309333 0 316.757333 164.096 338.176 213.333333-12.885333 29.525333-49.749333 99.925333-126.037333 151.808z" p-id="1192" fill="#ffffff"></path></svg>